# xmcd CD database file generated by Grip 2.95
# 
# Track frame offsets:
#       150
#       17582
#       32895
#       63462
#       77000
#       94300
#       108402
#       118412
#       130637
#       138347
#       161925
# 
# Disc length: 2317 seconds
# 
# Revision: 3
# Processed by: cddbd v1.4b42PL0 Copyright (c) Steve Scherf et al.
# Submitted via: Grip 2.95
# 
DISCID=96090b0b
DTITLE=Kinky Friedman - Lasso From El Passo
DYEAR=1900
DGENRE=
TTITLE0=Sold American
TTITLE1=Twinkle
TTITLE2=Ahab the Arab and Dear Abbie
TTITLE3=Kinky
TTITLE4=Lady Yesterday
TTITLE5=Catfish
TTITLE6=Men's Room L.A.
TTITLE7=Bananas and Cream
TTITLE8=Ol'Ben Lucas
TTITLE9=The Ballad of Ira Hayes
TTITLE10=Waitret, Please, Waitret
EXTD=
EXTT0=
EXTT1=
EXTT2=
EXTT3=
EXTT4=
EXTT5=
EXTT6=
EXTT7=
EXTT8=
EXTT9=
EXTT10=
PLAYORDER=
